Coordinates
version=1
nRows=16
nColumns=33
inDegrees=yes

Units are S.I. units (second, meters, Newtons, ...)
Angles are in degrees.

endheader
time	ground_thorax_rot_x	ground_thorax_rot_y	ground_thorax_rot_z	ground_thorax_tx	ground_thorax_ty	ground_thorax_tz	clav_prot_r	clav_elev_r	scapula_abduction_r	scapula_elevation_r	scapula_upward_rot_r	scapula_winging_r	shoulder_elv_r	plane_of_elev_r	axial_rot_r	elbow_flexion_r	pro_sup_r	wrist_flex_r	wrist_dev_r	clav_prot_l	clav_elev_l	scapula_abduction_l	scapula_elevation_l	scapula_upward_rot_l	scapula_winging_l	shoulder_elv_l	plane_of_elev_l	axial_rot_l	elbow_flexion_l	pro_sup_l	wrist_flex_l	wrist_dev_l
      2.34000000	     18.35961068	     41.65009729	     10.51670252	     -0.01493859	      1.01348158	     -0.04299781	    -18.45945204	     32.43506667	    -17.17947282	     23.49503324	     45.00000000	    -10.42496384	     -4.05626021	    -90.00000000	     21.60154452	     77.10480164	    -10.68304125	     30.92940671	    -10.77567164	     20.00452448	    -10.21954811	    -45.00000000	      1.90761043	      0.83797454	     19.64791738	     36.08695850	    -39.92005486	    -42.84542845	     73.77231788	     16.26910202	     16.30440683	    -15.63060117
      2.35000000	     18.33252590	     41.99848916	     10.55489998	     -0.01545236	      1.01301810	     -0.04307437	    -18.49683334	     32.37772358	    -17.17998291	     23.43939837	     45.00000000	    -10.45672728	     -3.80000374	    -90.00000000	     21.34589241	     77.55850054	    -12.04048529	     29.85040953	     -9.72946065	     20.45411413	    -10.57932256	    -45.00000000	      1.57066941	     -1.18759409	     19.60969392	     36.56592078	    -37.30614417	    -41.56528521	     73.60551654	     15.01746772	     18.27737495	    -14.34182247
      2.36000000	     18.26470977	     42.37836051	     10.48113982	     -0.01600146	      1.01293819	     -0.04324797	    -18.60563954	     32.12806439	    -17.06481987	     23.20505473	     45.00000000	    -10.58217761	     -3.60889499	    -90.00000000	     21.15544892	     77.63773741	    -13.21415923	     29.35530291	     -9.13341082	     20.88233016	    -11.06591252	    -45.00000000	      1.32617897	     -3.20133482	     19.50146882	     37.34756307	    -34.61797202	    -40.73479733	     73.28244653	     13.98074144	     19.34427598	    -13.42297361
      2.37000000	     18.03397758	     42.62411465	     10.67954122	     -0.01621978	      1.01337356	     -0.04350473	    -18.64873657	     31.83983666	    -16.75710616	     22.94509964	     45.00000000	    -10.70291026	     -3.50800128	    -90.00000000	     21.05477941	     77.34641589	    -13.31265587	     29.11346474	     -9.07708620	     20.90969584	    -11.53125692	    -45.00000000	      1.70327630	     -3.17807104	     19.28055001	     37.24257304	    -34.05744312	    -40.41565724	     72.72073427	     13.98338120	     19.40345471	    -13.15947907
      2.38000000	     18.05703474	     42.71230508	     10.31516539	     -0.01653329	      1.01318053	     -0.04373588	    -18.72194065	     31.43354024	    -16.36355837	     22.57835288	     45.00000000	    -10.87091395	     -3.17808132	    -90.00000000	     20.72522820	     77.64744036	    -13.83726064	     28.15576058	     -8.48095053	     21.07805683	    -11.86846879	    -45.00000000	      1.72919753	     -3.94136308	     19.16036865	     36.96975726	    -32.34255248	    -38.69010775	     72.02022762	     13.50446287	     20.69980974	    -12.34471788
      2.39000000	     17.76695322	     43.47802472	     10.71528417	     -0.01728573	      1.01299397	     -0.04374633	    -18.86790318	     31.38401428	    -16.61480043	     22.51777839	     45.00000000	    -10.93015948	     -3.09470891	    -90.00000000	     20.64244118	     77.59347125	    -15.51051907	     27.37667275	     -7.59309702	     21.81443881	    -12.72152105	    -45.00000000	      1.13253862	     -7.88085992	     18.95239000	     39.04499905	    -28.01144762	    -38.01798905	     71.51156055	     12.03750840	     23.20052682	    -11.50088138
      2.40000000	     17.59587965	     43.68040379	     10.85749705	     -0.01752342	      1.01345975	     -0.04419718	    -18.86599271	     31.06004679	    -16.18257780	     22.23449752	     45.00000000	    -11.04686937	     -2.97653287	    -90.00000000	     20.52548789	     77.20971310	    -15.59877733	     27.08015801	     -7.55514579	     21.86632224	    -13.26442127	    -45.00000000	      1.55035758	     -7.92496011	     18.69030230	     38.72715569	    -27.33562443	    -37.45732827	     70.59783955	     12.11269246	     23.14962264	    -11.08771444
      2.41000000	     17.63263581	     43.87072446	     10.82593244	     -0.01791968	      1.01276508	     -0.04460948	    -18.78108256	     30.96480965	    -15.87268422	     22.16032201	     45.00000000	    -11.05741671	     -2.70248364	    -90.00000000	     20.25608338	     77.54839752	    -16.37011367	     25.81840922	     -6.80492223	     22.16819883	    -13.57605392	    -45.00000000	      1.18874727	     -9.76741266	     18.62059317	     38.60778999	    -24.50908233	    -35.55407244	     69.36361199	     11.30990061	     25.32987866	    -10.16735332
      2.42000000	     17.58688878	     44.26179026	     10.68623387	     -0.01847270	      1.01255396	     -0.04490957	    -18.86635593	     30.64653187	    -15.64733765	     21.87292878	     45.00000000	    -11.19307150	     -2.48468034	    -90.00000000	     20.04750964	     77.49653102	    -17.42370110	     25.15011204	     -6.25294751	     22.64411234	    -14.37347346	    -45.00000000	      0.78044377	    -12.86659094	     18.34790046	     39.99332124	    -20.73540490	    -34.25630812	     68.31728749	     10.30098222	     26.88989253	     -9.35927270
      2.43000000	     17.26927132	     44.35069545	     10.65758340	     -0.01857896	      1.01299065	     -0.04518572	    -18.96054279	     30.03980091	    -15.09611835	     21.33456878	     45.00000000	    -11.42465099	     -2.34280221	    -90.00000000	     19.91555436	     77.13889950	    -17.61925191	     24.77799808	     -6.15163986	     22.75454971	    -14.97687135	    -45.00000000	      1.10980149	    -13.31295548	     18.06054115	     40.20609288	    -19.74313561	    -33.45486716	     67.32847219	     10.22119117	     26.93774125	     -8.96888631
      2.44000000	     17.07077560	     44.86488735	     10.96102141	     -0.01907655	      1.01247736	     -0.04565574	    -18.95641751	     29.97944804	    -15.01304207	     21.28250623	     45.00000000	    -11.44536039	     -2.20831238	    -90.00000000	     19.79813970	     77.04188720	    -18.61418563	     23.72763107	     -5.48246481	     23.13732008	    -15.68217711	    -45.00000000	      0.63776062	    -16.32254819	     17.79913525	     41.52342243	    -16.07754308	    -32.50461179	     65.97552410	      9.17723207	     29.19931319	     -8.21657271
      2.45000000	     16.86592455	     45.02056355	     11.06367296	     -0.01918108	      1.01290412	     -0.04617502	    -18.92376506	     29.55184053	    -14.43214382	     20.91575737	     45.00000000	    -11.57928340	     -2.11703556	    -90.00000000	     19.74286499	     76.46137466	    -18.69536854	     23.44146479	     -5.46674425	     23.21782515	    -16.38069885	    -45.00000000	      1.16857886	    -16.40132299	     17.44609985	     41.46471681	    -15.50032891	    -32.08293287	     64.81548559	      9.30793411	     29.05445304	     -7.85628700
      2.46000000	     16.81637414	     44.95513501	     10.76062852	     -0.01919834	      1.01292769	     -0.04645143	    -18.93891284	     28.96586326	    -13.78971226	     20.40924487	     45.00000000	    -11.76856576	     -1.69459716	    -90.00000000	     19.57448337	     76.40031855	    -19.06216490	     22.76531248	     -5.10278130	     23.35263156	    -16.94179194	    -45.00000000	      1.32770197	    -17.23508718	     17.17651687	     41.36852813	    -13.92327331	    -30.28624722	     63.24821505	      8.94146876	     29.74381189	     -7.43407449
      2.47000000	     16.59845001	     45.08459920	     10.91348602	     -0.01937720	      1.01297691	     -0.04707528	    -18.81359493	     28.83457215	    -13.37517513	     20.30876175	     45.00000000	    -11.78224303	     -1.68318150	    -89.49392725	     19.64347299	     75.62472712	    -19.20601855	     22.28111318	     -5.01383424	     23.43406386	    -17.58149710	    -45.00000000	      1.79896541	    -17.35391571	     16.83953324	     41.42456650	    -13.22449446	    -30.15953419	     62.01658175	      9.01878345	     30.01923161	     -7.08193682
      2.48000000	     17.20519622	     49.54293952	      5.98761561	     -0.01372884	      1.02314032	     -0.05215762	    -30.96297330	     17.37386850	    -25.88064223	      9.69252272	     45.00000000	    -18.35895262	     95.38729909	    -68.99756647	    117.49210736	     81.81432009	    -16.68463785	     19.29785986	     -5.27683151	     24.44406473	    -22.08977773	    -45.00000000	      2.52062724	    -25.53952191	     14.51005343	     51.74029746	     -3.56449616	    -28.77062094	     59.98838029	     11.04292153	     34.08361467	     -8.41064062
      2.49000000	     17.33975087	     49.59855347	      5.90888242	     -0.01373795	      1.02343696	     -0.05250264	    -30.77997112	     17.15034402	    -25.44089769	      9.53757883	     45.00000000	    -18.24950162	     94.59841702	    -69.10163728	    116.69075710	     81.59676204	    -19.60204989	     18.53536878	     -5.31101465	     24.59948669	    -23.13263711	    -45.00000000	      3.36177234	    -25.55716390	     13.86266890	     51.54753060	     -3.44773447	    -27.62934105	     58.22840312	      9.28123836	     35.50488490	     -7.67666996
